<svg width="336.87998046875px" height="336.8375px" xmlns="http://www.w3.org/2000/svg" viewBox="81.56000976562501 -93.41874999999999 336.87998046875 336.8375" style="background: rgba(5, 17, 3, 0);" preserveAspectRatio="xMidYMid"><defs><linearGradient id="editing-glowing-gradient" x1="0.6294095225512604" x2="0.3705904774487396" y1="0.017037086855465844" y2="0.9829629131445341"><stop offset="0" stop-color="#ffd443"></stop><stop offset="1" stop-color="#90ffff"></stop></linearGradient><filter id="editing-glowing" x="-100%" y="-100%" width="300%" height="300%"><feGaussianBlur in="SourceGraphic" result="blur" stdDeviation="8"></feGaussianBlur><feMerge><feMergeNode in="blur"></feMergeNode><feMergeNode in="SourceGraphic"></feMergeNode></feMerge></filter></defs><g filter="url(#editing-glowing)"><g transform="translate(135.70000004768372, 145.0999984741211)"><path d="M3-5L1.80-29.60L26.80-48.80L42.40-61.60L42.40-61.60Q50.40-68.40 56.20-74.40L56.20-74.40L56.20-74.40Q66.80-85 66.80-95.20L66.80-95.20L66.80-95.20Q66.80-101.20 62.90-104.40L62.90-104.40L62.90-104.40Q59-107.60 53.30-107.60L53.30-107.60L53.30-107.60Q47.60-107.60 43.50-106.30L43.50-106.30L43.50-106.30Q39.40-105 35.80-102.80L35.80-102.80L35.80-102.80Q28.20-97.80 24.60-90.20L24.60-90.20L24.60-90.20Q19.60-90.40 16.30-94.60L16.30-94.60L16.30-94.60Q13-98.80 13-104.90L13-104.90L13-104.90Q13-111 16.80-116.70L16.80-116.70L16.80-116.70Q20.60-122.40 27.40-126.80L27.40-126.80L27.40-126.80Q42.20-136 62.50-136L62.50-136L62.50-136Q82.80-136 94.20-127.20L94.20-127.20L94.20-127.20Q105.60-118.40 105.60-103.40L105.60-103.40L105.60-103.40Q105.60-92.20 100.10-82L100.10-82L100.10-82Q94.60-71.80 80-61.40L80-61.40L58.40-46.20L45.40-37.60L28.80-27.40L35.80-26.60L35.80-26.60Q40.60-26 49-26L49-26L49-26Q57.40-26 64.40-26.90L64.40-26.90L64.40-26.90Q71.40-27.80 77.40-29.60L77.40-29.60L77.40-29.60Q90.60-33.20 94.80-38.20L94.80-38.20L94.80-38.20Q97-36.60 98.70-32.50L98.70-32.50L98.70-32.50Q100.40-28.40 100.40-23.40L100.40-23.40L100.40-23.40Q100.40-8.40 89-2.20L89-2.20L89-2.20Q77.60 4 54.20 4L54.20 4L54.20 4Q42 4 25.80 0.50L25.80 0.50L25.80 0.50Q9.60-3 3-5L3-5ZM118.80-47.60L118.80-47.60L118.80-47.60Q118.80-88 137.80-112L137.80-112L137.80-112Q156.80-136 189.40-136L189.40-136L189.40-136Q206.80-136 216.80-123L216.80-123L216.80-123Q226.80-110 226.80-88.30L226.80-88.30L226.80-88.30Q226.80-66.60 221.90-49.70L221.90-49.70L221.90-49.70Q217-32.80 208.20-20.80L208.20-20.80L208.20-20.80Q189.80 4.20 159.20 4.20L159.20 4.20L159.20 4.20Q138.60 4.20 128.70-8.50L128.70-8.50L128.70-8.50Q118.80-21.20 118.80-47.60ZM154.20-34L154.20-34L154.20-34Q154.20-13.80 160.80-13.80L160.80-13.80L160.80-13.80Q166.80-13.80 172.30-20.80L172.30-20.80L172.30-20.80Q177.80-27.80 182.20-39.60L182.20-39.60L182.20-39.60Q191.60-65.40 191.60-97.40L191.60-97.40L191.60-97.40Q191.60-108.20 189.90-113.10L189.90-113.10L189.90-113.10Q188.20-118 183.70-118L183.70-118L183.70-118Q179.20-118 173.90-110.20L173.90-110.20L173.90-110.20Q168.60-102.40 164.20-90.20L164.20-90.20L164.20-90.20Q154.20-62.40 154.20-34Z" fill="url(#editing-glowing-gradient)"></path></g></g><style>text {
  font-size: 64px;
  font-family: Arial Black;
  dominant-baseline: central;
  text-anchor: middle;
}</style></svg>