<svg id="_x33_0" enable-background="new 0 0 64 64" height="512" viewBox="0 0 64 64" width="512" xmlns="http://www.w3.org/2000/svg"><g><path d="m5 35h2v2h-2z"/><path d="m5 39h2v2h-2z"/><path d="m57 35h2v2h-2z"/><path d="m57 39h2v2h-2z"/><path d="m61 29v-10.396c1.235-.691 2-1.973 2-3.4 0-1.043-.406-2.024-1.145-2.762l-3.855-3.857-3.855 3.856c-.739.739-1.145 1.72-1.145 2.763 0 1.427.765 2.709 2 3.4v10.396c-1.103 0-2 .897-2 2v14h-6v-10.505c2.504-1.906 4-4.912 4-8.061 0-4.27-2.702-8.104-6.724-9.541l-1.15-.411c-4.087-1.46-7.667-4.23-10.126-7.807v-2.776c2.279-.465 4-2.485 4-4.899h-2c0 1.654-1.346 3-3 3s-3-1.346-3-3h-2c0 2.414 1.721 4.434 4 4.899v2.777c-2.457 3.576-6.038 6.346-10.126 7.807l-1.15.411c-4.022 1.437-6.724 5.271-6.724 9.541 0 3.148 1.495 6.154 4 8.06v10.505h-6v-14c0-1.103-.897-2-2-2v-10.396c1.235-.691 2-1.973 2-3.4 0-1.043-.406-2.024-1.145-2.762l-3.855-3.857-3.855 3.856c-.739.739-1.145 1.72-1.145 2.763 0 1.427.765 2.709 2 3.4v10.396c-1.103 0-2 .897-2 2v32h62v-32c0-1.103-.897-2-2-2zm-5.441-15.144 2.441-2.441 2.441 2.441c.355.355.559.846.559 1.348 0 .727-.403 1.38-1.054 1.705l-.182.091h-3.527l-.183-.091c-.651-.325-1.054-.978-1.054-1.705 0-.502.204-.993.559-1.348zm1.441 5.144h2v10h-2zm-2 12h6v14h-6zm-40-4.565c0-3.427 2.168-6.504 5.396-7.657l1.151-.411c4.131-1.476 7.795-4.166 10.453-7.647 2.659 3.482 6.324 6.172 10.454 7.647l1.15.411c3.228 1.152 5.396 4.229 5.396 7.657 0 2.545-1.216 4.977-3.252 6.505l-.081.06h-27.334l-.081-.061c-2.036-1.527-3.252-3.959-3.252-6.504zm4 8.565h26v10h-2v-6c0-1.103-.897-2-2-2h-2c-1.103 0-2 .897-2 2v2h-2v-2c0-1.103-.897-2-2-2h-2c-1.103 0-2 .897-2 2v2h-2v-2c0-1.103-.897-2-2-2h-2c-1.103 0-2 .897-2 2v6h-2zm8 18h10v8h-10zm.101-2c.465-2.279 2.484-4 4.899-4s4.434 1.721 4.899 4zm4.899-6c-3.859 0-7 3.141-7 7v9h-2v-18h18v18h-2v-9c0-3.859-3.141-7-7-7zm-7-4h-2v-2h2zm8 0h-2v-2h2zm8 0h-2v-2h2zm-37.441-27.144 2.441-2.441 2.441 2.441c.355.355.559.846.559 1.348 0 .727-.403 1.38-1.054 1.705l-.182.091h-3.528l-.183-.091c-.65-.325-1.053-.978-1.053-1.705 0-.502.204-.993.559-1.348zm1.441 5.144h2v10h-2zm4 12v14h-6v-14zm-6 16h18v14h-4v-7c0-2.757-2.243-5-5-5s-5 2.243-5 5v7h-4zm12 14h-6v-7c0-1.654 1.346-3 3-3s3 1.346 3 3zm40 0h-6v-7c0-1.654 1.346-3 3-3s3 1.346 3 3zm2 0v-7c0-2.757-2.243-5-5-5s-5 2.243-5 5v7h-4v-14h18v14z"/><path d="m41.416 20.117c-3.222-1.209-6.234-3.14-8.714-5.584l-1.404 1.425c2.678 2.639 5.934 4.724 9.415 6.031z"/><path d="m45.634 22.58c-.6-.742-1.375-1.341-2.24-1.732l-.824 1.822c.583.264 1.104.667 1.51 1.167z"/></g></svg>