<svg width="701.2749511718749px" height="231.22503051757812px" xmlns="http://www.w3.org/2000/svg" viewBox="-100.63747558593747 -40.61251525878906 701.2749511718749 231.22503051757812" style="background: rgba(0, 0, 0, 0);" preserveAspectRatio="xMidYMid"><defs><filter id="editing-offset"><feFlood flood-color="#8fff00" flood-opacity="0.5" result="c1"></feFlood><feFlood flood-color="#0f0" flood-opacity="0.5" result="c2"></feFlood><feFlood flood-color="#0000ff" flood-opacity="0.5" result="c3"></feFlood><feComposite operator="in" in="c1" in2="SourceAlpha" result="text-c1"></feComposite><feComposite operator="in" in="c2" in2="SourceAlpha" result="text-c2"></feComposite><feComposite operator="in" in="c3" in2="SourceAlpha" result="text-c3"></feComposite><feOffset in="text-c1" dx="-10" dy="0" result="text1"></feOffset><feOffset in="text-c2" dx="10" dy="0" result="text2"></feOffset><feOffset in="text-c3" dx="0" dy="0" result="text3"></feOffset><feMerge><feMergeNode in="text1"></feMergeNode><feMergeNode in="text2"></feMergeNode><feMergeNode in="text3"></feMergeNode></feMerge></filter></defs><g filter="url(#editing-offset)"><g transform="translate(-6.674999237060547, 125.45500183105469)"><path d="M44.80-99.51L44.80-99.51Q59.37-99.51 67.27-91.99L67.27-91.99L67.27-91.99Q75.17-84.47 75.17-70.37L75.17-70.37L75.17-70.37Q75.17-53.78 65.33-44.33L65.33-44.33L65.33-44.33Q55.49-34.88 38.13-34.88L38.13-34.88L26.35-34.88L26.35-31L26.97 0L14.41 0L15.19-29.91L14.41-99.36L44.80-99.51ZM42.78-44.95L42.78-44.95Q52.39-46.50 57.43-52.70L57.43-52.70L57.43-52.70Q62.46-58.90 62.46-69.28L62.46-69.28L62.46-69.28Q62.46-88.50 42.01-89.28L42.01-89.28L26.97-88.81L26.50-45.26L42.78-44.95ZM119.35-26.97L119.19-22.16L119.66 0L108.03 0L108.66-22.16L108.50-26.97L82.30-77.19L95.01-77.19L96.56-72.69L113.92-39.52L114.70-39.52L133.61-72.23L135.63-77.19L148.02-77.19L119.35-26.97ZM288.92-99.36L253.27 0L240.41 0L221.03-57.66L219.94-57.66L199.49 0L186.62 0L155-99.36L167.40-99.36L169.11-89.75L193.28-13.79L194.37-13.79L215.76-74.25L207.39-99.36L220.10-99.36L222.43-88.66L246.92-13.79L247.84-13.79L274.81-89.13L277.14-99.36L288.92-99.36ZM330.61-9.30L351.23-9.92L352.16-8.99L351.07 0L304.11 0L304.57-23.25L304.11-77.19L351.38-77.19L352.16-76.26L351.23-67.27L331.70-67.89L315.58-67.73L315.42-44.33L330.77-44.17L344.25-44.64L345.03-43.55L344.10-34.41L329.84-34.88L315.42-34.72L315.27-24.18L315.42-9.46L330.61-9.30ZM398.04-9.30L418.65-9.92L419.58-8.99L418.50 0L371.53 0L372-23.25L371.53-77.19L418.81-77.19L419.58-76.26L418.65-67.27L399.13-67.89L383.00-67.73L382.85-44.33L398.19-44.17L411.68-44.64L412.45-43.55L411.52-34.41L397.26-34.88L382.85-34.72L382.69-24.18L382.85-9.46L398.04-9.30ZM496.93-77.34L464.07-41.08L464.07-41.08Q480.50-20.93 498.94-2.63L498.94-2.63L498.63-0.93L498.63-0.93Q493.83 0.62 487.47 1.40L487.47 1.40L485.62 0.62L485.62 0.62Q465.77-21.70 451.36-40.30L451.36-40.30L451.36-41.23L478.02-70.37L483.13-77.19L496.93-77.34ZM450.58-77.19L450.12-24.18L450.43 0L438.96 0L439.43-23.25L438.96-77.19L450.58-77.19Z"></path></g></g><style>text {
  font-size: 64px;
  font-family: Arial Black;
  dominant-baseline: central;
  text-anchor: middle;
}</style></svg>