<?xml version="1.0" encoding="UTF-8" standalone="no"?>
<svg
   xmlns:dc="http://purl.org/dc/elements/1.1/"
   xmlns:cc="http://creativecommons.org/ns#"
   xmlns:rdf="http://www.w3.org/1999/02/22-rdf-syntax-ns#"
   xmlns:svg="http://www.w3.org/2000/svg"
   xmlns="http://www.w3.org/2000/svg"
   xmlns:sodipodi="http://sodipodi.sourceforge.net/DTD/sodipodi-0.dtd"
   xmlns:inkscape="http://www.inkscape.org/namespaces/inkscape"
   width="628.85498046875px"
   height="201.2199951171875px"
   viewBox="-64.427490234375 -25.609997558593747 628.85498046875 201.2199951171875"
   style="background: rgba(0, 0, 0, 0);"
   preserveAspectRatio="xMidYMid"
   version="1.1"
   id="svg4037"
   sodipodi:docname="Pyweek.svg"
   inkscape:version="0.92.3 (2405546, 2018-03-11)">
  <metadata
     id="metadata4041">
    <rdf:RDF>
      <cc:Work
         rdf:about="">
        <dc:format>image/svg+xml</dc:format>
        <dc:type
           rdf:resource="http://purl.org/dc/dcmitype/StillImage" />
      </cc:Work>
    </rdf:RDF>
  </metadata>
  <sodipodi:namedview
     pagecolor="#ffffff"
     bordercolor="#666666"
     borderopacity="1"
     objecttolerance="10"
     gridtolerance="10"
     guidetolerance="10"
     inkscape:pageopacity="0"
     inkscape:pageshadow="2"
     inkscape:window-width="1366"
     inkscape:window-height="698"
     id="namedview4039"
     showgrid="false"
     inkscape:zoom="0.44843407"
     inkscape:cx="314.42749"
     inkscape:cy="100.61"
     inkscape:window-x="0"
     inkscape:window-y="0"
     inkscape:window-maximized="1"
     inkscape:current-layer="g4033" />
  <defs
     id="defs4027">
    <filter
       id="editing-extrusion"
       x="-100%"
       y="-100%"
       width="300%"
       height="300%">
      <feFlood
         result="color1"
         flood-color="#47bb1d"
         id="feFlood4012" />
      <feConvolveMatrix
         order="3,3"
         divisor="1"
         kernelMatrix="1 0 0 0 1 0 0 0 1"
         in="SourceAlpha"
         result="extrude"
         id="feConvolveMatrix4014" />
      <feComposite
         in="color1"
         in2="extrude"
         result="comp-extrude"
         operator="in"
         id="feComposite4016" />
      <feOffset
         dx="1.5"
         dy="1.5"
         in="comp-extrude"
         result="offset-extrude"
         id="feOffset4018" />
      <feMerge
         id="feMerge4024">
        <feMergeNode
           in="offset-extrude"
           id="feMergeNode4020" />
        <feMergeNode
           in="SourceGraphic"
           id="feMergeNode4022" />
      </feMerge>
    </filter>
  </defs>
  <g
     filter="url(#editing-extrusion)"
     id="g4033">
    <g
       transform="matrix(1.3644258,0,0,1.8533095,-51.915873,125.70401)"
       id="g4031">
      <path
         d="m 66.73,-36.41 v 17.87 0 q 0,3.41 -0.87,6.12 v 0 0 Q 65,-9.7 63.58,-7.64 v 0 0 q -1.42,2.05 -3.3,3.5 v 0 0 q -1.88,1.45 -3.94,2.36 v 0 0 q -2.05,0.92 -4.14,1.35 v 0 0 Q 50.12,0 48.24,0 V 0 H 24.43 v -13.2 h 23.81 v 0 q 2.64,0 3.96,-1.37 v 0 0 q 1.32,-1.38 1.32,-3.97 v 0 -17.77 0 q 0,-2.74 -1.34,-4.06 v 0 0 q -1.35,-1.32 -3.94,-1.32 v 0 H 24.53 v 0 q -2.69,0 -4.07,1.34 v 0 0 q -1.37,1.35 -1.37,3.94 v 0 53.57 H 5.89 v -53.57 0 q 0,-3.4 0.86,-6.09 v 0 0 q 0.87,-2.7 2.31,-4.75 v 0 0 q 1.45,-2.06 3.33,-3.51 v 0 0 q 1.88,-1.44 3.94,-2.36 v 0 0 q 2.05,-0.91 4.16,-1.34 v 0 0 q 2.11,-0.43 3.94,-0.43 v 0 h 23.81 v 0 q 3.4,0 6.1,0.86 v 0 0 q 2.69,0.86 4.74,2.28 v 0 0 q 2.06,1.43 3.51,3.3 v 0 0 q 1.45,1.88 2.36,3.94 v 0 0 q 0.91,2.06 1.34,4.14 v 0 0 q 0.44,2.08 0.44,3.96 z m 71.8,-18.48 v 60.17 0 q 0,3.4 -0.86,6.12 v 0 0 q -0.87,2.72 -2.29,4.77 v 0 0 q -1.42,2.06 -3.3,3.51 v 0 0 q -1.88,1.45 -3.93,2.36 v 0 0 q -2.06,0.91 -4.14,1.34 v 0 0 q -2.08,0.44 -3.96,0.44 v 0 H 96.23 V 10.61 h 23.82 v 0 q 2.64,0 3.96,-1.37 v 0 0 q 1.32,-1.37 1.32,-3.96 v 0 -60.17 z M 120.05,-13.2 V 0 H 96.23 v 0 q -2.84,0 -6.07,-0.96 v 0 0 q -3.22,-0.97 -6.02,-3.18 v 0 0 q -2.79,-2.21 -4.62,-5.74 v 0 0 q -1.82,-3.53 -1.82,-8.66 v 0 -36.35 h 13.2 v 36.35 0 q 0,2.59 1.37,3.97 v 0 0 q 1.37,1.37 4.06,1.37 v 0 z m 106.69,-41.69 h 14.78 v 0 q -3.15,7.05 -6.81,13.88 v 0 0 q -3.66,6.83 -7.64,12.93 v 0 0 q -3.99,6.09 -8.15,11.25 v 0 0 q -4.17,5.15 -8.25,8.88 v 0 0 q -4.09,3.74 -7.98,5.84 v 0 0 Q 198.81,0 195.36,0 v 0 0 q -1.43,0 -2.65,-0.51 v 0 0 q -1.21,-0.51 -2.13,-1.39 v 0 0 q -0.91,-0.89 -1.42,-2.11 v 0 0 q -0.51,-1.22 -0.51,-2.64 v 0 -24.63 l -26.2,29.3 v 0 q -1.02,1.02 -2.21,1.5 v 0 0 Q 159.05,0 157.78,0 v 0 0 q -1.37,0 -2.57,-0.51 v 0 0 q -1.19,-0.51 -2.1,-1.39 v 0 0 q -0.92,-0.89 -1.45,-2.11 v 0 0 q -0.53,-1.22 -0.53,-2.64 v 0 -48.24 h 13.2 v 31.28 l 26.3,-29.41 v 0 q 1.42,-1.42 3.38,-1.8 v 0 0 q 1.95,-0.38 3.83,0.43 v 0 0 q 1.88,0.76 2.97,2.42 v 0 0 q 1.1,1.65 1.1,3.63 v 0 31.38 0 q 4.26,-4.11 7.72,-8.68 v 0 0 q 3.45,-4.57 6.42,-9.42 v 0 0 q 2.97,-4.85 5.58,-9.86 v 0 0 q 2.62,-5 5.11,-9.97 z m 78.4,18.18 v 0 0 q 0,2.74 -0.96,5.91 v 0 0 q -0.97,3.17 -3.12,5.89 v 0 0 q -2.16,2.72 -5.64,4.55 v 0 0 q -3.48,1.82 -8.46,1.82 v 0 h -23.81 v -12.54 h 23.81 v 0 q 2.7,0 4.17,-1.65 v 0 0 q 1.47,-1.65 1.47,-4.09 v 0 0 q 0,-2.59 -1.65,-4.06 v 0 0 q -1.65,-1.47 -3.99,-1.47 v 0 h -23.81 v 0 q -2.69,0 -4.17,1.65 v 0 0 q -1.47,1.65 -1.47,4.09 v 0 18.43 0 q 0,2.64 1.65,4.11 v 0 0 q 1.65,1.48 4.09,1.48 v 0 h 23.71 V 0 h -23.81 v 0 q -2.74,0 -5.92,-0.96 v 0 0 q -3.17,-0.97 -5.89,-3.13 v 0 0 q -2.71,-2.16 -4.54,-5.63 v 0 0 q -1.83,-3.48 -1.83,-8.46 v 0 -18.53 0 q 0,-2.75 0.96,-5.92 v 0 0 q 0.97,-3.17 3.13,-5.89 v 0 0 q 2.15,-2.72 5.63,-4.55 v 0 0 q 3.48,-1.82 8.46,-1.82 v 0 h 23.81 v 0 q 2.75,0 5.92,0.96 v 0 0 q 3.17,0.97 5.89,3.12 v 0 0 q 2.72,2.16 4.55,5.64 v 0 0 q 1.82,3.48 1.82,8.46 z m 67.95,0 v 0 0 q 0,2.74 -0.96,5.91 v 0 0 q -0.97,3.17 -3.13,5.89 v 0 0 q -2.16,2.72 -5.63,4.55 v 0 0 q -3.48,1.82 -8.46,1.82 v 0 h -23.82 v -12.54 h 23.82 v 0 q 2.69,0 4.16,-1.65 v 0 0 q 1.48,-1.65 1.48,-4.09 v 0 0 q 0,-2.59 -1.65,-4.06 v 0 0 q -1.65,-1.47 -3.99,-1.47 v 0 h -23.82 v 0 q -2.69,0 -4.16,1.65 v 0 0 q -1.47,1.65 -1.47,4.09 v 0 18.43 0 q 0,2.64 1.65,4.11 v 0 0 q 1.65,1.48 4.09,1.48 v 0 h 23.71 V 0 h -23.82 v 0 q -2.74,0 -5.91,-0.96 v 0 0 Q 322,-1.93 319.29,-4.09 v 0 0 q -2.72,-2.16 -4.55,-5.63 v 0 0 q -1.83,-3.48 -1.83,-8.46 v 0 -18.53 0 q 0,-2.75 0.97,-5.92 v 0 0 q 0.96,-3.17 3.12,-5.89 v 0 0 q 2.16,-2.72 5.64,-4.55 v 0 0 q 3.48,-1.82 8.45,-1.82 v 0 h 23.82 v 0 q 2.74,0 5.92,0.96 v 0 0 q 3.17,0.97 5.89,3.12 v 0 0 q 2.71,2.16 4.54,5.64 v 0 0 q 1.83,3.48 1.83,8.46 z m 42.3,6.75 L 446.47,0 h -19.04 l -26.61,-25.7 v 0 q -2.24,-2.03 -2.09,-5.07 v 0 0 q 0.11,-1.43 0.74,-2.67 v 0 0 q 0.64,-1.24 1.75,-2.11 v 0 L 425.34,-55 h 21.13 z M 395.38,-78.1 V 0 h -13.2 v -78.1 z"
         id="path4029"
         inkscape:connector-curvature="0"
         style="fill:#00f1f1" />
    </g>
  </g>
  <style
     id="style4035">text {
  font-size: 64px;
  font-family: Arial Black;
  dominant-baseline: central;
  text-anchor: middle;
}</style>
</svg>
